<svg width="196" height="39" viewBox="0 0 196 39" fill="none" xmlns="http://www.w3.org/2000/svg">
<path d="M19.3295 9.04474C19.3674 7.72846 18.9649 6.71993 18.1221 6.01918C17.2888 5.31842 16.0909 4.96804 14.5284 4.96804C13.4299 4.96804 12.4592 5.13376 11.6164 5.4652C10.7831 5.78717 10.1108 6.23698 9.59939 6.81463C9.08803 7.38281 8.77079 8.03149 8.64769 8.76065C8.54352 9.35724 8.5956 9.87808 8.80394 10.3232C9.01227 10.7682 9.3295 11.147 9.75564 11.4595C10.1912 11.772 10.6837 12.0324 11.2329 12.2408C11.7916 12.4491 12.3598 12.6243 12.9375 12.7663L15.5511 13.4482C16.5928 13.7038 17.5871 14.0495 18.534 14.4851C19.481 14.9112 20.3001 15.4605 20.9914 16.1328C21.6922 16.7957 22.2036 17.5959 22.5255 18.5334C22.8475 19.4709 22.8996 20.5694 22.6818 21.8288C22.3977 23.5334 21.7111 25.0343 20.6221 26.3317C19.5426 27.6196 18.1221 28.6281 16.3608 29.3572C14.6089 30.0769 12.5681 30.4368 10.2386 30.4368C7.98481 30.4368 6.0814 30.0864 4.52837 29.3857C2.97534 28.6754 1.83897 27.648 1.11928 26.3033C0.409049 24.9586 0.181776 23.325 0.437458 21.4027H5.62212C5.51795 22.416 5.68367 23.2588 6.11928 23.9311C6.56435 24.6035 7.20356 25.1054 8.03689 25.4368C8.87022 25.7682 9.83613 25.934 10.9346 25.934C12.0805 25.934 13.1174 25.7635 14.0454 25.4226C14.9734 25.0722 15.731 24.5893 16.3181 23.9737C16.9147 23.3487 17.2793 22.6196 17.4119 21.7862C17.5445 21.0381 17.4356 20.4131 17.0852 19.9112C16.7348 19.4093 16.1903 18.9927 15.4517 18.6612C14.7225 18.3203 13.8513 18.0173 12.838 17.7521L9.68462 16.8999C7.40242 16.2749 5.66947 15.3374 4.48575 14.0874C3.31151 12.8374 2.89484 11.1707 3.23575 9.08736C3.51984 7.36387 4.23481 5.86293 5.38064 4.58452C6.52647 3.29664 7.96113 2.29759 9.68462 1.58736C11.4081 0.867661 13.2926 0.507812 15.338 0.507812C17.4024 0.507812 19.1496 0.867661 20.5795 1.58736C22.0189 2.30705 23.07 3.31084 23.7329 4.59872C24.4053 5.87713 24.6278 7.35914 24.4005 9.04474H19.3295Z" fill="black"/>
<path d="M32.2055 30.4226C30.018 30.4226 28.2093 29.968 26.7794 29.059C25.3494 28.1404 24.3456 26.843 23.768 25.1669C23.1998 23.4813 23.1051 21.4974 23.4839 19.2152C23.8532 16.9709 24.6061 15.0012 25.7424 13.3061C26.8788 11.6016 28.2992 10.2758 30.0038 9.32883C31.7178 8.3724 33.6117 7.89418 35.6856 7.89418C37.0303 7.89418 38.2661 8.11198 39.393 8.54758C40.5199 8.97372 41.4716 9.6366 42.2481 10.5362C43.0246 11.4358 43.5597 12.5817 43.8532 13.9737C44.1468 15.3563 44.1326 17.004 43.8106 18.9169L43.5691 20.4936H25.6714L26.2254 17.0277H39.1799C39.3504 16.0429 39.2936 15.1669 39.0095 14.3999C38.7254 13.6233 38.2519 13.0125 37.589 12.5675C36.9261 12.1224 36.0975 11.8999 35.1032 11.8999C34.09 11.8999 33.143 12.1603 32.2623 12.6811C31.3911 13.1925 30.6572 13.8554 30.0606 14.6697C29.464 15.4841 29.0852 16.3411 28.9242 17.2408L28.3419 20.5646C28.1335 21.9283 28.1809 23.041 28.4839 23.9027C28.7869 24.7644 29.3172 25.3989 30.0748 25.8061C30.8324 26.2133 31.7888 26.4169 32.9441 26.4169C33.7017 26.4169 34.4025 26.3127 35.0464 26.1044C35.6903 25.8961 36.2633 25.5836 36.7652 25.1669C37.2765 24.7408 37.7027 24.2199 38.0436 23.6044L42.7453 24.1442C42.2244 25.4131 41.4621 26.5211 40.4583 27.468C39.4546 28.4055 38.2519 29.1347 36.8504 29.6555C35.4583 30.1669 33.91 30.4226 32.2055 30.4226Z" fill="black"/>
<path d="M52.7555 30.4226C50.568 30.4226 48.7593 29.968 47.3294 29.059C45.8994 28.1404 44.8956 26.843 44.318 25.1669C43.7498 23.4813 43.6551 21.4974 44.0339 19.2152C44.4032 16.9709 45.1561 15.0012 46.2924 13.3061C47.4288 11.6016 48.8492 10.2758 50.5538 9.32883C52.2678 8.3724 54.1617 7.89418 56.2356 7.89418C57.5803 7.89418 58.8161 8.11198 59.943 8.54758C61.0699 8.97372 62.0216 9.6366 62.7981 10.5362C63.5746 11.4358 64.1097 12.5817 64.4032 13.9737C64.6968 15.3563 64.6826 17.004 64.3606 18.9169L64.1191 20.4936H46.2214L46.7754 17.0277H59.7299C59.9004 16.0429 59.8436 15.1669 59.5595 14.3999C59.2754 13.6233 58.8019 13.0125 58.139 12.5675C57.4761 12.1224 56.6475 11.8999 55.6532 11.8999C54.64 11.8999 53.693 12.1603 52.8123 12.6811C51.9411 13.1925 51.2072 13.8554 50.6106 14.6697C50.014 15.4841 49.6352 16.3411 49.4742 17.2408L48.8919 20.5646C48.6835 21.9283 48.7309 23.041 49.0339 23.9027C49.3369 24.7644 49.8672 25.3989 50.6248 25.8061C51.3824 26.2133 52.3388 26.4169 53.4941 26.4169C54.2517 26.4169 54.9525 26.3127 55.5964 26.1044C56.2403 25.8961 56.8133 25.5836 57.3152 25.1669C57.8265 24.7408 58.2527 24.2199 58.5936 23.6044L63.2953 24.1442C62.7744 25.4131 62.0121 26.5211 61.0083 27.468C60.0046 28.4055 58.8019 29.1347 57.4004 29.6555C56.0083 30.1669 54.46 30.4226 52.7555 30.4226Z" fill="black"/>
<path d="M69.5129 23.1499L70.5214 16.9425H71.3453L80.6777 8.17827H86.6862L75.2657 18.9169H74.2146L69.5129 23.1499ZM63.7032 29.9965L68.5328 0.90554H73.6748L68.8453 29.9965H63.7032ZM77.3964 29.9965L71.9419 20.0675L76.0186 16.4453L83.547 29.9965H77.3964Z" fill="black"/>
<path d="M91.9805 30.4226C89.793 30.4226 87.9843 29.968 86.5544 29.059C85.1244 28.1404 84.1206 26.843 83.543 25.1669C82.9748 23.4813 82.8801 21.4974 83.2589 19.2152C83.6282 16.9709 84.3811 15.0012 85.5174 13.3061C86.6538 11.6016 88.0742 10.2758 89.7788 9.32883C91.4928 8.3724 93.3867 7.89418 95.4606 7.89418C96.8053 7.89418 98.0411 8.11198 99.168 8.54758C100.295 8.97372 101.247 9.6366 102.023 10.5362C102.8 11.4358 103.335 12.5817 103.628 13.9737C103.922 15.3563 103.908 17.004 103.586 18.9169L103.344 20.4936H85.4464L86.0004 17.0277H98.9549C99.1254 16.0429 99.0686 15.1669 98.7845 14.3999C98.5004 13.6233 98.0269 13.0125 97.364 12.5675C96.7011 12.1224 95.8725 11.8999 94.8782 11.8999C93.865 11.8999 92.918 12.1603 92.0373 12.6811C91.1661 13.1925 90.4322 13.8554 89.8356 14.6697C89.239 15.4841 88.8602 16.3411 88.6992 17.2408L88.1169 20.5646C87.9085 21.9283 87.9559 23.041 88.2589 23.9027C88.5619 24.7644 89.0922 25.3989 89.8498 25.8061C90.6074 26.2133 91.5638 26.4169 92.7191 26.4169C93.4767 26.4169 94.1775 26.3127 94.8214 26.1044C95.4653 25.8961 96.0383 25.5836 96.5402 25.1669C97.0515 24.7408 97.4777 24.2199 97.8186 23.6044L102.52 24.1442C101.999 25.4131 101.237 26.5211 100.233 27.468C99.2295 28.4055 98.0269 29.1347 96.6254 29.6555C95.2333 30.1669 93.685 30.4226 91.9805 30.4226Z" fill="black"/>
<path d="M102.928 29.9965L106.565 8.17827H111.55L110.94 11.8146H111.167C111.763 10.5552 112.606 9.58452 113.695 8.9027C114.794 8.21141 115.968 7.86577 117.218 7.86577C117.512 7.86577 117.829 7.87997 118.17 7.90838C118.511 7.92732 118.804 7.96046 119.05 8.00781L118.255 12.7379C118.037 12.6622 117.696 12.5959 117.232 12.5391C116.778 12.4728 116.328 12.4396 115.883 12.4396C114.945 12.4396 114.074 12.6432 113.269 13.0504C112.474 13.4482 111.801 14.0021 111.252 14.7124C110.703 15.4226 110.348 16.2417 110.187 17.1697L108.07 29.9965H102.928Z" fill="black"/>
<path d="M135.13 9.04474C135.167 7.72846 134.765 6.71993 133.922 6.01918C133.089 5.31842 131.891 4.96804 130.328 4.96804C129.23 4.96804 128.259 5.13376 127.416 5.4652C126.583 5.78717 125.911 6.23698 125.399 6.81463C124.888 7.38281 124.571 8.03149 124.448 8.76065C124.344 9.35724 124.396 9.87808 124.604 10.3232C124.812 10.7682 125.13 11.147 125.556 11.4595C125.991 11.772 126.484 12.0324 127.033 12.2408C127.592 12.4491 128.16 12.6243 128.737 12.7663L131.351 13.4482C132.393 13.7038 133.387 14.0495 134.334 14.4851C135.281 14.9112 136.1 15.4605 136.791 16.1328C137.492 16.7957 138.004 17.5959 138.326 18.5334C138.648 19.4709 138.7 20.5694 138.482 21.8288C138.198 23.5334 137.511 25.0343 136.422 26.3317C135.343 27.6196 133.922 28.6281 132.161 29.3572C130.409 30.0769 128.368 30.4368 126.039 30.4368C123.785 30.4368 121.881 30.0864 120.328 29.3857C118.775 28.6754 117.639 27.648 116.919 26.3033C116.209 24.9586 115.982 23.325 116.237 21.4027H121.422C121.318 22.416 121.484 23.2588 121.919 23.9311C122.364 24.6035 123.004 25.1054 123.837 25.4368C124.67 25.7682 125.636 25.934 126.735 25.934C127.88 25.934 128.917 25.7635 129.845 25.4226C130.773 25.0722 131.531 24.5893 132.118 23.9737C132.715 23.3487 133.079 22.6196 133.212 21.7862C133.344 21.0381 133.236 20.4131 132.885 19.9112C132.535 19.4093 131.99 18.9927 131.252 18.6612C130.522 18.3203 129.651 18.0173 128.638 17.7521L125.485 16.8999C123.202 16.2749 121.469 15.3374 120.286 14.0874C119.112 12.8374 118.695 11.1707 119.036 9.08736C119.32 7.36387 120.035 5.86293 121.181 4.58452C122.326 3.29664 123.761 2.29759 125.485 1.58736C127.208 0.867661 129.093 0.507812 131.138 0.507812C133.202 0.507812 134.95 0.867661 136.38 1.58736C137.819 2.30705 138.87 3.31084 139.533 4.59872C140.205 5.87713 140.428 7.35914 140.201 9.04474H135.13Z" fill="#007AFF"/>
<path d="M137.054 38.1783L142.082 8.17827H147.139L146.557 11.7862H146.855C147.196 11.2559 147.655 10.6925 148.233 10.0959C148.82 9.48982 149.563 8.97372 150.463 8.54758C151.363 8.11198 152.456 7.89418 153.744 7.89418C155.42 7.89418 156.864 8.32505 158.077 9.18679C159.289 10.0391 160.155 11.3033 160.676 12.9794C161.206 14.6461 161.273 16.6915 160.875 19.1158C160.477 21.5116 159.743 23.5476 158.673 25.2237C157.603 26.8999 156.32 28.1783 154.824 29.059C153.327 29.9396 151.722 30.38 150.008 30.38C148.758 30.38 147.75 30.1716 146.983 29.755C146.225 29.3383 145.652 28.8364 145.264 28.2493C144.876 27.6527 144.587 27.0893 144.398 26.559H144.17L142.238 38.1783H137.054ZM145.307 19.0874C145.079 20.4983 145.075 21.7341 145.292 22.7947C145.52 23.8554 145.97 24.6839 146.642 25.2805C147.314 25.8677 148.195 26.1612 149.284 26.1612C150.42 26.1612 151.415 25.8582 152.267 25.2521C153.129 24.6366 153.844 23.7985 154.412 22.7379C154.989 21.6679 155.397 20.451 155.633 19.0874C155.851 17.7332 155.851 16.5305 155.633 15.4794C155.416 14.4283 154.975 13.6044 154.312 13.0078C153.649 12.4112 152.75 12.1129 151.613 12.1129C150.506 12.1129 149.516 12.4018 148.645 12.9794C147.783 13.5571 147.068 14.3667 146.5 15.4084C145.932 16.45 145.534 17.6764 145.307 19.0874Z" fill="#007AFF"/>
<path d="M169.816 30.4226C167.667 30.4226 165.877 29.9491 164.447 29.0021C163.026 28.0552 162.027 26.7247 161.45 25.0107C160.872 23.2966 160.768 21.308 161.137 19.0447C161.506 16.8099 162.245 14.8544 163.353 13.1783C164.47 11.5021 165.877 10.2048 167.572 9.28622C169.276 8.35819 171.185 7.89418 173.296 7.89418C175.446 7.89418 177.231 8.3724 178.651 9.32883C180.072 10.2758 181.071 11.6063 181.649 13.3203C182.236 15.0343 182.345 17.0324 181.975 19.3146C181.615 21.54 180.872 23.486 179.745 25.1527C178.628 26.8194 177.221 28.1167 175.526 29.0447C173.831 29.9633 171.928 30.4226 169.816 30.4226ZM170.242 26.3033C171.435 26.3033 172.482 25.9813 173.381 25.3374C174.291 24.6839 175.034 23.808 175.612 22.7095C176.199 21.6016 176.606 20.3705 176.833 19.0163C177.042 17.7095 177.046 16.5258 176.847 15.4652C176.649 14.3951 176.222 13.5476 175.569 12.9226C174.925 12.2881 174.03 11.9709 172.884 11.9709C171.691 11.9709 170.635 12.3023 169.717 12.9652C168.808 13.6186 168.064 14.4993 167.487 15.6072C166.909 16.7057 166.511 17.9321 166.293 19.2862C166.076 20.593 166.066 21.7768 166.265 22.8374C166.464 23.898 166.89 24.7408 167.543 25.3658C168.197 25.9908 169.096 26.3033 170.242 26.3033Z" fill="#007AFF"/>
<path d="M195.909 8.17827L195.242 12.1555H182.713L183.367 8.17827H195.909ZM187.316 2.95099H192.458L189.049 23.434C188.945 24.1252 188.963 24.6555 189.105 25.0249C189.257 25.3847 189.498 25.6309 189.83 25.7635C190.171 25.8961 190.554 25.9624 190.98 25.9624C191.293 25.9624 191.587 25.9387 191.861 25.8913C192.136 25.8345 192.354 25.7919 192.515 25.7635L192.742 29.7834C192.429 29.8781 192.008 29.9822 191.478 30.0959C190.957 30.2095 190.332 30.2758 189.603 30.2947C188.296 30.3232 187.159 30.1243 186.194 29.6982C185.237 29.2625 184.536 28.5949 184.091 27.6953C183.656 26.7862 183.556 25.6499 183.793 24.2862L187.316 2.95099Z" fill="#007AFF"/>
</svg>
